<svg width="50" height="50" xmlns="http://www.w3.org/2000/svg" xmlns:sketch="http://www.bohemiancoding.com/sketch/ns"><title>Flickr</title><path d="M0 25c0 13.807 11.193 25 25 25s25-11.193 25-25-11.193-25-25-25-25 11.193-25 25zm3 0c0 12.15 9.85 22 22 22s22-9.85 22-22-9.85-22-22-22-22 9.85-22 22zm8-.607c0 3.531 2.866 6.393 6.403 6.393 3.536 0 6.403-2.862 6.403-6.393 0-3.531-2.866-6.393-6.403-6.393-3.536 0-6.403 2.862-6.403 6.393zm22.403 6.393c3.536 0 6.403-2.862 6.403-6.393 0-3.531-2.866-6.393-6.403-6.393-3.536 0-6.403 2.862-6.403 6.393 0 3.531 2.866 6.393 6.403 6.393zm-.008-10.82c2.445 0 4.426 1.982 4.426 4.426 0 2.445-1.982 4.426-4.426 4.426-2.445 0-4.426-1.982-4.426-4.426 0-2.445 1.982-4.426 4.426-4.426zm0 0" sketch:type="MSShapeGroup" fill="#fff"/></svg>