<svg width="50" height="50" xmlns="http://www.w3.org/2000/svg" xmlns:sketch="http://www.bohemiancoding.com/sketch/ns"><title>Mail</title><path d="M25 0c-13.807 0-25 11.193-25 25s11.193 25 25 25 25-11.193 25-25-11.193-25-25-25zm0 3c-12.15 0-22 9.85-22 22s9.85 22 22 22 22-9.85 22-22-9.85-22-22-22zm12 28.965v-14.965l-8.737 8.464 8.737 6.5zm-24 0l8.737-6.501-8.737-8.463v14.965zm9.914-5.36l-9.914 6.395h24l-9.914-6.395-2.086 2.02-2.086-2.02zm-9.194-9.605l11.28 9.058 11.28-9.058h-22.56zm0 0" sketch:type="MSShapeGroup" fill="#fff"/></svg>