<svg width="80px" height="80px" viewBox="0 0 80 80" version="1.1" xmlns="http://www.w3.org/2000/svg">
    <title>Left Arrow</title>
    <description>Scroll Left</description>
    <path fill="#ffffff" opacity="1.00" d=" M 30.57 1.69 C 48.81 -3.52 69.27 7.27 76.45 24.56 C 81.22 35.59 80.32 48.76 74.40 59.17 C 65.33 76.05 43.05 84.29 25.31 76.79 C 6.43 69.29 -4.56 46.10 2.60 26.88 C 7.04 14.56 17.95 4.95 30.57 1.69 M 31.38 5.64 C 21.40 8.13 12.98 15.45 8.45 24.60 C 2.05 36.97 3.88 53.24 13.70 63.33 C 23.53 74.40 40.68 78.75 54.26 72.35 C 70.44 65.17 79.82 44.82 73.11 28.10 C 67.37 11.56 48.37 1.21 31.38 5.64 Z" />
    <path fill="#ffffff" opacity="1.00" d=" M 42.07 24.06 C 43.91 21.80 45.84 24.76 47.14 26.02 C 43.08 31.08 38.07 35.28 33.63 40.00 C 38.07 44.72 43.09 48.92 47.15 53.99 C 45.74 55.22 44.00 58.23 42.09 55.96 C 36.89 50.61 31.36 45.57 26.41 39.99 C 31.37 34.44 36.88 29.39 42.07 24.06 Z" />
    <path fill="#ffffff" opacity="0.30" d=" M 31.38 5.64 C 48.37 1.21 67.37 11.56 73.11 28.10 C 79.82 44.82 70.44 65.17 54.26 72.35 C 40.68 78.75 23.53 74.40 13.70 63.33 C 3.88 53.24 2.05 36.97 8.45 24.60 C 12.98 15.45 21.40 8.13 31.38 5.64 M 42.07 24.06 C 36.88 29.39 31.37 34.44 26.41 39.99 C 31.36 45.57 36.89 50.61 42.09 55.96 C 44.00 58.23 45.74 55.22 47.15 53.99 C 43.09 48.92 38.07 44.72 33.63 40.00 C 38.07 35.28 43.08 31.08 47.14 26.02 C 45.84 24.76 43.91 21.80 42.07 24.06 Z" />
    </svg>
