<svg width="50" height="50" xmlns="http://www.w3.org/2000/svg" xmlns:sketch="http://www.bohemiancoding.com/sketch/ns"><title>Skype</title><path d="M50 25c0-13.807-11.193-25-25-25s-25 11.193-25 25 11.193 25 25 25 25-11.193 25-25zm-3 0c0-12.15-9.85-22-22-22s-22 9.85-22 22 9.85 22 22 22 22-9.85 22-22zm-21.56-11.025c-.63 0-1.248.053-1.849.153-1.078-.713-2.36-1.128-3.741-1.128-3.785 0-6.85 3.111-6.85 6.951 0 1.397.405 2.695 1.103 3.784-.094.595-.142 1.205-.142 1.826 0 6.399 5.138 11.586 11.479 11.586.716 0 1.412-.071 2.09-.195 1.052.662 2.292 1.048 3.62 1.048 3.784 0 6.85-3.112 6.85-6.951 0-1.451-.437-2.8-1.189-3.916.069-.515.108-1.039.108-1.572 0-6.398-5.14-11.586-11.48-11.586zm-5.472 14.718c1.423-.097 2.278 1.645 3.038 2.13.759.483 3.646 1.583 5.171-.195 1.661-1.935-1.104-2.937-3.131-3.24-2.894-.437-6.547-2.033-6.263-5.179.284-3.144 2.619-4.756 5.076-4.983 3.132-.29 5.171.484 6.783 1.887 1.865 1.621.856 3.434-.332 3.58-1.183.145-2.512-2.667-5.122-2.709-2.69-.043-4.507 2.854-1.187 3.678 3.322.823 6.879 1.161 8.16 4.257 1.282 3.097-1.992 6.386-5.646 6.58-3.651.194-5.36-.63-6.925-2.128-1.748-1.673-1.046-3.581.378-3.678zm0 0" sketch:type="MSShapeGroup" fill="none"/></svg>