<svg width="50px" height="50px" viewBox="0 0 111 111" version="1.1" xmlns="http://www.w3.org/2000/svg">
    <title>Find me on Facebook</title>
    <description>Find me on Facebook</description>
    <path class="outercircle" d=" M 54.64 0.00 L 56.50 0.00 C 71.18 0.26 85.62 6.52 95.69 17.22 C 104.70 26.45 110.03 38.97 111.00 51.79 L 111.00 58.63 C 110.20 73.30 103.33 87.52 92.26 97.17 C 83.24 105.22 71.52 110.02 59.50 111.00 L 52.36 111.00 C 37.68 110.18 23.45 103.25 13.82 92.14 C 5.31 82.56 0.46 69.94 0.00 57.16 L 0.00 54.42 C 0.34 40.50 5.94 26.70 15.80 16.81 C 25.84 6.33 40.14 0.25 54.64 0.00 M 45.52 7.70 C 32.54 10.39 20.79 18.61 13.92 29.96 C 7.83 39.76 5.49 51.77 7.29 63.15 C 9.35 76.83 17.65 89.35 29.31 96.75 C 38.05 102.35 48.62 105.03 58.98 104.26 C 71.31 103.46 83.25 97.71 91.54 88.54 C 101.56 77.80 106.19 62.36 103.80 47.87 C 101.54 32.98 91.93 19.49 78.63 12.46 C 68.61 7.01 56.66 5.45 45.52 7.70 Z" />
    <path class="innericon" d=" M 51.80 33.67 C 56.25 30.04 62.43 31.33 67.73 31.08 C 67.72 33.90 67.73 36.72 67.72 39.53 C 65.23 39.67 62.53 39.12 60.22 40.23 C 59.09 42.28 59.78 44.81 59.59 47.06 C 62.31 47.07 65.04 47.07 67.77 47.06 C 67.47 49.89 67.15 52.71 66.81 55.54 C 64.40 55.53 61.99 55.53 59.59 55.54 C 59.58 63.69 59.58 71.84 59.59 79.99 C 55.98 80.01 52.36 80.00 48.75 80.00 C 48.73 71.84 48.77 63.68 48.73 55.53 C 46.93 55.53 45.14 55.53 43.34 55.53 C 43.33 52.71 43.33 49.90 43.33 47.08 C 45.13 47.07 46.94 47.06 48.75 47.06 C 48.86 42.53 47.99 37.01 51.80 33.67 Z" />
    </svg>
