<svg width="50" height="50" xmlns="http://www.w3.org/2000/svg" xmlns:sketch="http://www.bohemiancoding.com/sketch/ns"><title>Intsagram</title><path d="M25 0c-13.807 0-25 11.193-25 25s11.193 25 25 25 25-11.193 25-25-11.193-25-25-25zm0 3c-12.15 0-22 9.85-22 22s9.85 22 22 22 22-9.85 22-22-9.85-22-22-22zm10.951 31.51l.049-.308v-18.403l-.047-.302c-.193-1.031-1.006-1.831-2.004-1.974l-.123-.023h-17.651l-.319.06c-.975.232-1.696 1.053-1.835 2.085l-.021.129v18.453l.061.351c.215.996 1.029 1.769 1.997 1.899l.141.023h17.602l.342-.063c.898-.199 1.632-.983 1.808-1.928zm-19.571-1.411c0 .49.406.911.874.911h15.488c.473 0 .876-.42.876-.914v-10.27h-2.1c.297.991.388 1.999.271 3.026-.117 1.028-.433 1.984-.949 2.867-.516.884-1.185 1.616-2.004 2.199-2.123 1.512-4.919 1.645-7.172.323-1.139-.668-2.033-1.599-2.657-2.798-.93-1.79-1.079-3.669-.533-5.618l-2.094.001v10.273zm8.517-3.441c2.491.056 4.506-2.025 4.558-4.555.054-2.61-1.96-4.765-4.456-4.764-2.44-.002-4.424 2.051-4.458 4.59-.035 2.608 1.962 4.675 4.355 4.729zm8.72-11.177v-2.178c0-.521-.394-.935-.892-.936h-2.078c-.496.001-.892.416-.892.937 0 .72-.002 1.44.003 2.16.001.107.02.219.053.321.124.383.46.618.871.62h1.003l1.087-.006c.466-.012.845-.43.845-.917zm0 0" sketch:type="MSShapeGroup" fill="none"/></svg>