<svg width="50" height="50" xmlns="http://www.w3.org/2000/svg" xmlns:sketch="http://www.bohemiancoding.com/sketch/ns"><title>Facebook</title><path d="M25 50c13.807 0 25-11.193 25-25s-11.193-25-25-25-25 11.193-25 25 11.193 25 25 25zm0-3c12.15 0 22-9.85 22-22s-9.85-22-22-22-22 9.85-22 22 9.85 22 22 22zm1.815-11v-11.001h3.254l.431-3.791h-3.685l.006-1.897c0-.989.101-1.519 1.623-1.519h2.034v-3.792h-3.255c-3.909 0-5.285 1.839-5.285 4.932v2.276h-2.437v3.791h2.437v11.001h4.878zm0 0" sketch:type="MSShapeGroup" fill="#fff"/></svg>