<svg width="50" height="50" xmlns="http://www.w3.org/2000/svg" xmlns:sketch="http://www.bohemiancoding.com/sketch/ns"><title>Twitter</title><path d="M25 50c13.807 0 25-11.193 25-25s-11.193-25-25-25-25 11.193-25 25 11.193 25 25 25zm0-3c12.15 0 22-9.85 22-22s-9.85-22-22-22-22 9.85-22 22 9.85 22 22 22zm-.318-26.446l.048.822-.795-.101c-2.893-.386-5.421-1.694-7.567-3.891l-1.049-1.09-.27.805c-.572 1.795-.207 3.69.986 4.964.636.704.493.805-.604.386-.382-.134-.715-.235-.747-.184-.111.117.27 1.644.572 2.247.413.839 1.256 1.66 2.178 2.147l.779.386-.922.017c-.89 0-.922.017-.827.369.318 1.09 1.574 2.247 2.973 2.751l.986.352-.858.537c-1.272.771-2.766 1.208-4.26 1.241-.715.017-1.303.084-1.303.134 0 .168 1.939 1.107 3.068 1.476 3.386 1.09 7.408.621 10.428-1.241 2.146-1.325 4.292-3.958 5.293-6.507.54-1.358 1.081-3.841 1.081-5.031 0-.771.048-.872.938-1.795.525-.537 1.017-1.124 1.113-1.291.159-.319.143-.319-.668-.034-1.351.503-1.542.436-.874-.319.493-.537 1.081-1.509 1.081-1.795 0-.05-.238.034-.509.184-.286.168-.922.419-1.399.57l-.858.285-.779-.553c-.429-.302-1.033-.637-1.351-.738-.811-.235-2.051-.201-2.782.067-1.987.755-3.243 2.7-3.1 4.83zm0 0" sketch:type="MSShapeGroup" fill="none"/></svg>