<svg width="50" height="50" xmlns="http://www.w3.org/2000/svg" xmlns:sketch="http://www.bohemiancoding.com/sketch/ns"><title>LinkedIn</title><path d="M25 50c13.807 0 25-11.193 25-25s-11.193-25-25-25-25 11.193-25 25 11.193 25 25 25zm0-3c12.15 0 22-9.85 22-22s-9.85-22-22-22-22 9.85-22 22 9.85 22 22 22zm-11-26.882v14.54h4.71v-14.54h-4.71zm2.665-7.118c-1.611 0-2.665 1.086-2.665 2.512 0 1.396 1.022 2.513 2.604 2.513h.03c1.642 0 2.665-1.117 2.665-2.513-.031-1.426-1.023-2.512-2.634-2.512zm13.912 7.118c-2.501 0-3.62 1.411-4.246 2.401v-2.059h-4.711c.062 1.364 0 14.54 0 14.54h4.711v-8.12c0-.435.031-.868.155-1.179.34-.868 1.115-1.767 2.417-1.767 1.705 0 2.387 1.333 2.387 3.287v7.779h4.71v-8.337c0-4.466-2.324-6.545-5.423-6.545zm0 0" sketch:type="MSShapeGroup" fill="none"/></svg>