<svg width="963pt" height="346pt" viewBox="0 0 963 346" version="1.1" xmlns="http://www.w3.org/2000/svg">
    <title>Adam J. Piechnik</title>
    <description>Adam J. Piechnik Logo</description>
<g id="pink">
<path fill="#ee2375" opacity="1.00" d=" M 636.76 33.76 C 653.92 33.75 671.08 33.75 688.24 33.76 C 688.25 63.16 688.24 92.57 688.24 121.97 C 688.37 135.59 688.29 149.80 682.42 162.40 C 677.81 172.45 669.82 180.81 660.24 186.27 C 657.39 188.02 654.09 188.92 651.43 190.99 C 647.68 192.31 643.74 192.95 639.87 193.80 C 625.08 195.26 609.64 194.92 595.70 189.23 C 583.87 184.56 574.04 175.75 567.06 165.23 C 578.63 155.49 590.20 145.75 601.75 135.98 C 605.23 140.85 609.18 145.76 614.77 148.28 C 620.44 150.91 628.10 150.40 632.30 145.35 C 636.69 140.38 636.93 133.33 636.76 127.04 C 636.75 95.94 636.75 64.85 636.76 33.76 Z" />
<path fill="#ee2375" opacity="1.00" d=" M 694.00 140.00 C 711.00 140.00 728.00 140.00 745.00 140.00 C 745.00 157.00 745.00 174.00 745.00 191.00 C 728.00 191.00 711.00 191.00 694.00 191.00 C 694.00 174.00 694.00 157.00 694.00 140.00 Z" />
</g>
<g id="grey">
<path fill="#58585a" opacity="1.00" d=" M 62.21 35.76 C 81.55 35.76 100.90 35.75 120.24 35.76 C 120.20 81.83 120.35 127.89 120.17 173.95 C 100.61 127.99 81.56 81.81 62.21 35.76 Z" />
<path fill="#58585a" opacity="1.00" d=" M 199.94 36.06 C 200.63 35.98 202.01 35.81 202.70 35.73 C 238.48 35.79 274.26 35.74 310.05 35.76 C 297.67 65.15 285.52 94.64 273.03 123.98 C 275.21 105.48 272.55 85.70 262.18 69.87 C 253.56 56.56 239.89 47.13 225.04 41.98 C 216.94 38.98 208.41 37.52 199.94 36.06 Z" />
<path fill="#58585a" opacity="1.00" d=" M 363.40 35.77 C 382.68 35.74 401.96 35.76 421.24 35.76 C 421.19 81.57 421.38 127.39 421.14 173.20 C 413.11 155.30 405.91 137.01 398.21 118.95 C 386.60 91.23 375.01 63.50 363.40 35.77 Z" />
<path fill="#58585a" opacity="1.00" d=" M 476.34 35.79 C 498.58 35.71 520.82 35.77 543.06 35.76 C 531.98 54.01 520.86 72.24 509.71 90.45 C 498.50 72.28 487.43 54.03 476.34 35.79 Z" />
<path fill="#58585a" opacity="1.00" d=" M 172.51 80.76 C 183.82 80.62 195.82 80.21 206.07 85.77 C 214.20 89.74 219.47 98.19 220.55 107.04 C 221.81 116.46 220.72 126.99 214.47 134.56 C 209.23 141.01 201.10 144.25 193.10 145.56 C 186.30 146.77 179.38 146.48 172.51 146.49 C 172.50 124.58 172.50 102.67 172.51 80.76 Z" />
<path fill="#58585a" opacity="1.00" d=" M 20.45 134.00 C 25.46 121.23 29.77 108.15 35.22 95.58 C 40.03 108.38 44.94 121.14 49.62 133.99 C 39.90 134.01 30.17 134.00 20.45 134.00 Z" />
<path fill="#58585a" opacity="1.00" d=" M 321.63 133.99 C 326.56 121.08 331.31 108.10 336.29 95.21 C 341.16 108.13 345.99 121.06 350.90 133.96 C 341.14 134.04 331.39 133.99 321.63 133.99 Z" />
<path fill="#58585a" opacity="1.00" d=" M 472.50 113.79 C 484.75 132.59 496.92 151.45 509.07 170.32 C 521.81 151.80 533.51 132.53 545.98 113.81 C 546.02 139.46 546.00 165.10 545.99 190.75 C 539.99 190.74 534.00 190.74 528.00 190.75 C 527.99 209.17 528.00 227.58 528.00 246.00 C 511.92 246.00 495.84 246.00 479.76 246.00 C 479.65 227.54 479.95 209.08 479.61 190.64 C 477.24 190.73 474.87 190.76 472.50 190.75 C 472.50 165.09 472.51 139.44 472.50 113.79 Z" />
<path fill="#58585a" opacity="1.00" d=" M 248.10 171.16 C 251.33 168.58 254.02 165.44 257.05 162.65 C 252.83 171.95 249.27 181.53 245.03 190.82 C 230.28 190.54 215.53 191.00 200.79 190.59 C 217.76 187.94 234.74 182.29 248.10 171.16 Z" />
<path fill="#58585a" opacity="1.00" d=" M 7.26 171.03 C 25.72 170.97 44.17 170.99 62.63 171.02 C 65.40 178.00 68.12 185.01 70.89 192.00 C 78.18 192.01 85.46 191.99 92.75 192.01 C 92.77 203.83 92.68 215.65 92.81 227.48 C 90.52 221.95 87.92 216.45 83.90 211.95 C 75.70 202.25 63.80 196.46 51.62 193.52 C 34.73 189.26 17.21 191.16 0.00 190.75 L 0.00 190.03 C 2.41 183.70 4.90 177.39 7.26 171.03 Z" />
<path fill="#58585a" opacity="1.00" d=" M 308.40 171.08 C 326.86 170.90 345.33 171.04 363.79 171.01 C 366.07 176.64 368.24 182.32 370.50 187.96 C 349.32 185.29 326.96 189.92 309.41 202.31 C 300.12 208.65 292.39 217.12 286.52 226.70 C 286.48 215.14 286.53 203.58 286.49 192.03 C 291.21 191.90 295.94 192.19 300.66 191.82 C 302.99 184.82 305.95 178.05 308.40 171.08 Z" />
<path fill="#58585a" opacity="1.00" d=" M 639.87 193.80 C 643.74 192.95 647.68 192.31 651.43 190.99 C 665.62 191.01 679.81 190.99 694.00 191.00 C 694.01 212.34 693.97 233.67 694.03 255.01 C 693.95 256.67 694.26 258.51 693.28 259.99 C 675.37 238.02 657.67 215.87 639.87 193.80 Z" />
<path fill="#58585a" opacity="1.00" d=" M 745.00 191.00 C 747.99 191.00 750.99 191.00 754.00 191.00 C 754.00 242.67 754.00 294.33 754.00 346.00 L 745.00 346.00 C 745.00 294.33 745.00 242.67 745.00 191.00 Z" />
<path fill="#58585a" opacity="1.00" d=" M 805.76 191.25 C 808.25 191.25 810.74 191.25 813.24 191.25 C 813.25 242.75 813.24 294.24 813.24 345.74 C 810.74 345.74 808.24 345.75 805.76 345.74 C 805.76 294.24 805.74 242.75 805.76 191.25 Z" />
<path fill="#58585a" opacity="1.00" d=" M 865.76 191.25 C 880.52 191.27 895.28 191.22 910.04 191.28 C 895.35 210.72 880.66 230.17 865.81 249.48 C 865.69 230.07 865.78 210.66 865.76 191.25 Z" />
<path fill="#58585a" opacity="1.00" d=" M 145.00 192.00 C 147.58 192.00 150.17 192.00 152.75 192.01 C 152.69 243.34 152.86 294.67 152.66 346.00 L 145.22 346.00 C 145.07 344.31 145.00 342.63 144.99 340.94 C 145.02 291.30 144.99 241.65 145.00 192.00 Z" />
<path fill="#58585a" opacity="1.00" d=" M 580.25 192.01 C 582.91 192.00 585.57 192.00 588.24 192.00 C 588.23 243.33 588.28 294.67 588.22 346.00 L 580.38 346.00 C 580.09 294.67 580.34 243.34 580.25 192.01 Z" />
<path fill="#58585a" opacity="1.00" d=" M 916.58 258.77 C 931.99 239.40 947.61 220.19 963.00 200.81 L 963.00 332.71 C 947.62 308.01 932.01 283.44 916.58 258.77 Z" />
<path fill="#58585a" opacity="1.00" d=" M 386.42 253.12 C 400.15 245.18 413.78 237.08 427.49 229.12 C 427.49 255.05 427.52 280.98 427.48 306.91 C 414.17 299.42 400.89 291.91 387.60 284.39 C 383.55 291.41 378.29 298.33 370.60 301.56 C 361.21 305.55 349.57 304.93 341.26 298.74 C 333.73 293.20 329.64 284.03 328.65 274.91 C 327.15 263.36 329.88 250.67 338.23 242.17 C 348.61 231.48 367.57 231.54 378.20 241.82 C 381.65 245.01 384.20 249.01 386.42 253.12 Z" />
<path fill="#58585a" opacity="1.00" d=" M 7.01 232.25 C 14.36 232.37 21.77 231.86 29.06 233.01 C 34.61 233.94 40.34 236.98 42.57 242.42 C 44.57 247.38 44.58 253.24 42.20 258.07 C 39.63 263.01 34.35 265.91 29.03 266.92 C 21.77 268.31 14.35 267.55 7.01 267.75 C 6.99 255.92 6.99 244.08 7.01 232.25 Z" />
<path fill="#58585a" opacity="1.00" d=" M 204.19 233.57 C 230.42 233.43 256.65 233.53 282.88 233.52 C 280.54 238.75 278.64 244.18 277.28 249.75 C 252.94 249.75 228.60 249.75 204.25 249.75 C 204.23 244.35 204.32 238.96 204.19 233.57 Z" />
<path fill="#58585a" opacity="1.00" d=" M 77.60 288.58 C 84.64 282.73 89.60 274.76 92.76 266.25 C 92.67 292.83 92.86 319.42 92.67 346.00 L 7.22 346.00 C 6.71 332.35 7.14 318.67 7.00 305.00 C 17.15 304.95 27.33 305.28 37.45 304.20 C 51.84 302.59 66.43 298.12 77.60 288.58 Z" />
<path fill="#58585a" opacity="1.00" d=" M 640.26 274.79 C 649.02 285.69 657.80 296.58 666.57 307.47 C 676.71 320.38 687.43 332.85 697.26 346.00 L 640.38 346.00 C 640.09 322.27 640.33 298.53 640.26 274.79 Z" />
<path fill="#58585a" opacity="1.00" d=" M 204.25 304.74 C 204.26 298.99 204.23 293.24 204.28 287.49 C 228.49 287.53 252.71 287.49 276.93 287.51 C 278.17 293.43 280.14 299.18 282.58 304.71 C 256.47 304.79 230.36 304.73 204.25 304.74 Z" />
<path fill="#58585a" opacity="1.00" d=" M 479.76 291.26 C 495.84 291.25 511.91 291.26 527.99 291.25 C 527.93 309.50 528.15 327.75 527.88 346.00 L 479.79 346.00 C 479.71 327.75 479.77 309.50 479.76 291.26 Z" />
<path fill="#58585a" opacity="1.00" d=" M 865.76 314.00 C 870.28 308.54 874.73 303.01 879.29 297.57 C 889.20 313.72 899.29 329.76 909.06 346.00 L 865.79 346.00 C 865.71 335.33 865.77 324.66 865.76 314.00 Z" />
<path fill="#58585a" opacity="1.00" d=" M 287.74 314.20 C 293.36 322.71 300.47 330.28 308.87 336.09 C 314.50 340.16 320.83 343.03 327.08 346.00 L 287.79 346.00 C 287.70 335.40 287.80 324.80 287.74 314.20 Z" />
</g>
</svg>
