<svg width="50px" height="50px" viewBox="0 0 111 111" version="1.1" xmlns="http://www.w3.org/2000/svg">
    <title>Find me on Google+</title>
    <description>Find me on Google+</description>
    <path class="outercircle" d=" M 54.48 0.00 L 56.55 0.00 C 71.22 0.27 85.66 6.55 95.72 17.25 C 104.69 26.45 109.98 38.90 111.00 51.67 L 111.00 58.65 C 110.25 71.91 104.62 84.86 95.27 94.33 C 85.93 104.01 72.95 109.91 59.57 111.00 L 52.32 111.00 C 37.92 110.17 23.93 103.49 14.31 92.72 C 5.51 83.09 0.49 70.25 0.00 57.24 L 0.00 54.37 C 0.36 40.48 5.94 26.73 15.77 16.85 C 25.78 6.39 40.02 0.30 54.48 0.00 M 14.28 29.39 C 7.93 39.29 5.46 51.54 7.28 63.15 C 8.77 73.08 13.61 82.40 20.45 89.68 C 20.89 86.28 23.87 84.10 26.63 82.52 C 32.46 79.16 39.32 78.52 45.90 78.04 C 43.23 75.03 41.79 70.71 43.79 66.92 C 38.16 67.65 31.96 66.38 27.91 62.16 C 22.79 57.07 21.88 48.61 25.44 42.40 C 29.13 35.28 37.27 31.75 44.96 31.26 C 53.60 30.84 62.26 31.18 70.91 31.05 C 68.22 31.67 66.09 33.52 63.61 34.63 C 61.40 35.02 59.13 34.73 56.90 34.78 C 62.15 38.76 65.39 45.47 63.95 52.09 C 63.19 57.36 58.96 60.96 55.09 64.15 C 52.75 65.99 51.63 69.77 54.01 72.05 C 58.66 76.32 64.93 79.61 67.07 85.95 C 69.35 92.57 66.29 99.88 61.01 104.12 C 71.90 102.83 82.40 97.94 90.09 90.08 C 98.84 81.41 104.09 69.32 104.38 57.00 C 104.85 43.67 99.51 30.29 90.05 20.91 C 80.86 11.78 67.98 6.39 54.99 6.74 C 38.73 6.66 22.85 15.62 14.28 29.39 M 39.08 35.07 C 34.83 36.31 32.34 40.71 32.45 44.98 C 32.49 51.31 34.50 58.28 39.67 62.32 C 44.75 66.37 53.71 63.43 54.79 56.84 C 55.76 50.39 53.83 43.46 49.71 38.39 C 47.26 35.27 42.89 33.70 39.08 35.07 M 33.16 83.93 C 28.84 86.00 26.44 90.93 27.39 95.62 C 35.28 100.84 44.54 104.23 54.07 104.31 C 59.99 102.60 62.78 94.73 59.33 89.61 C 56.80 86.08 53.07 83.67 49.59 81.17 C 44.06 80.71 38.20 81.48 33.16 83.93 Z" />
    <path class="innericon" d=" M 80.01 32.60 C 81.67 32.60 83.32 32.60 84.98 32.60 C 84.99 36.46 84.98 40.33 84.99 44.20 C 87.95 44.20 90.91 44.20 93.87 44.20 C 94.46 45.81 95.02 47.43 95.55 49.05 C 92.03 49.08 88.51 49.06 84.99 49.07 C 84.99 52.98 84.99 56.89 84.99 60.80 C 83.33 60.80 81.67 60.80 80.01 60.80 C 80.01 56.89 80.01 52.98 80.00 49.07 C 76.13 49.06 72.26 49.08 68.39 49.05 C 68.39 47.43 68.39 45.82 68.39 44.20 C 72.26 44.20 76.13 44.20 80.00 44.20 C 80.01 40.33 80.00 36.47 80.01 32.60 Z" />
    </svg>
