<svg width="50px" height="50px" viewBox="0 0 111 111" version="1.1" xmlns="http://www.w3.org/2000/svg">
    <title>Phone Me</title>
    <description>Phone Me</description>
    <path class="outercircle" d=" M 54.58 0.00 L 56.53 0.00 C 69.05 0.42 81.53 4.67 91.12 12.83 C 102.34 21.91 109.50 35.57 111.00 49.88 L 111.00 60.49 C 109.67 74.54 102.78 87.98 92.03 97.13 C 82.40 105.60 69.70 110.26 56.94 110.70 C 40.38 111.01 23.74 103.75 13.12 90.96 C 4.92 81.45 0.45 69.04 0.00 56.54 L 0.00 54.29 C 0.37 38.96 7.30 23.90 18.92 13.87 C 28.68 5.19 41.56 0.40 54.58 0.00 M 48.13 7.22 C 36.54 8.96 25.75 15.12 18.17 24.03 C 10.67 32.82 6.52 44.40 6.71 55.96 C 6.81 67.39 11.15 78.73 18.72 87.30 C 27.92 97.91 41.86 104.25 55.92 104.02 C 70.20 104.09 84.27 97.38 93.35 86.39 C 101.93 76.16 105.99 62.29 104.17 49.05 C 102.41 35.15 94.27 22.16 82.43 14.64 C 72.45 8.01 59.94 5.45 48.13 7.22 Z" />
    <path class="innericon" d=" M 43.27 18.24 C 44.78 16.94 46.58 18.35 47.21 19.81 C 50.40 25.60 54.21 31.07 56.96 37.08 C 56.66 39.73 53.47 40.31 51.62 41.64 C 50.23 42.85 47.90 42.86 47.10 40.98 C 43.80 35.26 40.41 29.59 37.23 23.80 C 36.74 20.47 41.20 19.86 43.27 18.24 Z" />
    <path class="innericon" d=" M 27.52 33.11 C 28.43 28.97 32.21 26.50 35.66 24.56 C 39.09 30.58 42.63 36.54 46.08 42.55 C 42.23 45.63 42.35 51.13 43.74 55.42 C 45.77 61.79 49.46 68.14 55.43 71.53 C 57.73 73.00 60.61 72.80 63.09 71.93 C 66.63 77.89 70.08 83.91 73.55 89.91 C 70.00 92.12 65.63 93.96 61.46 92.35 C 55.98 90.00 51.66 85.68 47.65 81.37 C 38.83 71.19 32.03 59.13 28.52 46.09 C 27.52 41.87 26.76 37.43 27.52 33.11 Z" />
    <path class="innericon" d=" M 64.23 70.01 C 65.21 66.77 69.36 66.03 71.99 64.36 C 73.24 64.99 74.16 66.02 74.77 67.27 C 77.74 72.57 80.99 77.71 83.82 83.08 C 85.06 85.46 82.00 86.47 80.52 87.50 C 78.82 88.41 76.14 90.68 74.64 88.31 C 71.07 82.28 67.31 76.29 64.23 70.01 Z" />
    </svg>
