<svg width="50px" height="50px" viewBox="0 0 111 111" version="1.1" xmlns="http://www.w3.org/2000/svg">
    <title>Find me on Twitter</title>
    <description>Find me on Twitter</description>
<path class="outercircle" d=" M 54.74 0.00 L 56.37 0.00 C 71.09 0.22 85.60 6.49 95.70 17.23 C 104.75 26.51 110.10 39.11 111.00 52.01 L 111.00 58.56 C 110.25 73.03 103.56 87.07 92.75 96.73 C 83.63 105.07 71.64 110.07 59.34 111.00 L 52.39 111.00 C 37.95 110.20 23.93 103.50 14.31 92.69 C 5.48 83.01 0.42 70.12 0.00 57.05 L 0.00 54.46 C 0.34 40.52 5.93 26.71 15.80 16.81 C 25.87 6.31 40.21 0.22 54.74 0.00 M 45.48 7.71 C 32.76 10.36 21.21 18.32 14.31 29.34 C 7.76 39.52 5.33 52.18 7.44 64.08 C 9.87 78.37 19.16 91.23 31.81 98.25 C 50.00 108.69 74.72 105.48 89.53 90.60 C 99.33 81.22 104.89 67.63 104.38 54.07 C 104.01 39.34 96.57 24.91 84.60 16.29 C 73.62 7.91 58.95 4.93 45.48 7.71 Z" />
<path class="innericon" d=" M 61.27 35.17 C 65.23 33.32 69.57 35.03 72.71 37.65 C 74.86 36.95 76.97 36.13 79.06 35.27 C 77.92 37.21 76.64 39.07 75.37 40.94 C 76.99 40.45 78.61 39.98 80.23 39.52 C 78.51 42.31 74.84 44.19 75.16 47.88 C 74.59 55.91 71.16 63.74 65.27 69.28 C 56.34 78.09 41.26 78.90 30.92 72.06 C 36.02 72.02 41.12 70.86 45.36 67.91 C 41.53 66.68 37.56 64.36 36.32 60.28 C 37.34 60.24 39.38 60.17 40.40 60.13 C 35.99 58.33 32.77 54.23 32.51 49.41 C 33.53 49.67 35.57 50.20 36.60 50.46 C 32.95 46.68 31.81 41.07 34.00 36.23 C 39.30 42.40 46.66 46.84 54.87 47.55 C 54.17 42.61 56.39 37.06 61.27 35.17 Z" />
</svg>
