<svg width="50px" height="50px" viewBox="0 0 111 111" version="1.1" xmlns="http://www.w3.org/2000/svg">
    <title>Find me on Flickr</title>
    <description>Find me on Flickr</description>
<path class="outercircle" d=" M 54.96 0.00 L 56.27 0.00 C 71.03 0.19 85.59 6.47 95.72 17.25 C 104.80 26.58 110.18 39.24 111.00 52.21 L 111.00 58.50 C 110.28 72.76 103.79 86.61 93.26 96.27 C 84.01 104.92 71.72 110.14 59.09 111.00 L 52.51 111.00 C 38.02 110.24 23.94 103.51 14.29 92.67 C 5.42 82.93 0.35 69.93 0.00 56.79 L 0.00 54.60 C 0.29 40.61 5.90 26.74 15.81 16.80 C 25.93 6.25 40.36 0.16 54.96 0.00 M 45.57 7.69 C 32.82 10.31 21.24 18.28 14.32 29.33 C 7.92 39.24 5.46 51.55 7.29 63.19 C 9.37 76.85 17.66 89.35 29.31 96.75 C 38.90 102.91 50.70 105.50 62.00 103.96 C 74.43 102.38 86.09 95.72 93.83 85.87 C 102.28 75.34 105.99 61.20 103.80 47.88 C 101.56 32.98 91.92 19.48 78.61 12.45 C 68.61 7.01 56.70 5.46 45.57 7.69 Z" />
<path class="innericon" d=" M 34.45 40.67 C 41.82 38.21 50.54 42.92 52.36 50.50 C 54.62 57.92 49.52 66.39 41.96 67.97 C 34.48 70.00 26.09 64.65 24.77 57.03 C 23.20 50.13 27.66 42.61 34.45 40.67 Z" />
<path class="innericon" d=" M 70.48 40.54 C 78.31 38.18 87.23 43.89 88.24 52.03 C 89.68 59.66 83.65 67.51 75.96 68.25 C 68.91 69.30 61.63 64.13 60.34 57.12 C 58.67 50.04 63.41 42.27 70.48 40.54 M 70.29 45.22 C 63.06 47.90 62.42 59.15 69.26 62.67 C 75.08 66.39 83.65 62.00 83.97 55.10 C 84.97 47.99 76.73 42.03 70.29 45.22 Z" />
</svg>
