<?xml version="1.0" encoding="utf-8"?>
<!-- Generator: Adobe Illustrator 17.0.1, SVG Export Plug-In . SVG Version: 6.00 Build 0)  -->
<!DOCTYPE svg PUBLIC "-//W3C//DTD SVG 1.1//EN" "http://www.w3.org/Graphics/SVG/1.1/DTD/svg11.dtd">
<svg version="1.1" id="Layer_1" xmlns="http://www.w3.org/2000/svg" xmlns:xlink="http://www.w3.org/1999/xlink" x="0px" y="0px"
	 width="50px" height="50px" viewBox="123.5 123.5 50 50" enable-background="new 123.5 123.5 50 50" xml:space="preserve">
<g id="_x23_1b1c1fff">
	<path fill="#1B1C1F" d="M148.388,123.5h0.278c2.769,0.082,5.545,0.488,8.158,1.426c5.43,1.866,10.152,5.691,13.111,10.587
		c2.374,3.81,3.556,8.285,3.647,12.752v0.28c-0.084,1.992-0.258,3.993-0.779,5.925c-1.376,5.633-4.857,10.715-9.58,14.103
		c-4.182,3.069-9.357,4.676-14.538,4.76h-0.28c-5.184-0.082-10.362-1.688-14.548-4.76c-4.14-2.973-7.334-7.243-8.976-12.056
		c-0.904-2.55-1.298-5.252-1.383-7.948v-0.285c0.088-3.69,0.867-7.388,2.519-10.707c2.766-5.753,7.862-10.359,13.892-12.525
		C142.616,124.03,145.506,123.589,148.388,123.5 M145.845,126.649c-2.502,0.314-4.954,1.039-7.204,2.178
		c-4.808,2.396-8.676,6.608-10.622,11.596c-2.019,5.076-2.019,10.908-0.002,15.984c1.782,4.566,5.17,8.485,9.423,10.95
		c4.86,2.859,10.86,3.715,16.337,2.357c5.703-1.351,10.764-5.113,13.728-10.138c2.663-4.411,3.642-9.785,2.757-14.851
		c-0.914-5.549-4.12-10.666-8.683-13.975C157.123,127.435,151.359,125.966,145.845,126.649z"/>
	<path fill="#1B1C1F" d="M143.117,131.611c0.388-0.203,0.906-0.139,1.206,0.186c0.3,0.337,0.494,0.748,0.723,1.133
		c1.256,2.168,2.513,4.336,3.776,6.5c0.196,0.339,0.39,0.74,0.25,1.138c-0.152,0.485-0.659,0.696-1.059,0.941
		c-0.659,0.344-1.268,0.784-1.954,1.072c-0.53,0.218-1.105-0.114-1.341-0.596c-1.443-2.487-2.894-4.972-4.329-7.462
		c-0.322-0.48-0.238-1.193,0.28-1.502C141.464,132.522,142.285,132.052,143.117,131.611z"/>
	<path fill="#1B1C1F" d="M136.955,136.408c0.723-0.789,1.681-1.295,2.58-1.852c1.582,2.72,3.158,5.443,4.737,8.165
		c-1.245,0.797-1.612,2.388-1.476,3.77c0.238,2.406,1.295,4.68,2.735,6.604c0.907,1.171,2.008,2.275,3.41,2.836
		c0.938,0.384,2.03,0.361,2.934-0.107c1.582,2.72,3.158,5.443,4.737,8.165c-0.99,0.512-1.968,1.114-3.091,1.287
		c-1.243,0.232-2.519-0.149-3.575-0.8c-2.541-1.532-4.594-3.732-6.421-6.032c-3.133-4.079-5.634-8.686-7.049-13.636
		c-0.484-1.795-0.818-3.654-0.723-5.52C135.803,138.225,136.218,137.18,136.955,136.408z"/>
	<path fill="#1B1C1F" d="M155.611,152.593c0.514-0.129,1.002,0.216,1.226,0.658c1.44,2.483,2.885,4.965,4.317,7.452
		c0.293,0.44,0.251,1.091-0.184,1.421c-0.595,0.436-1.273,0.742-1.899,1.131c-0.433,0.235-0.906,0.592-1.428,0.423
		c-0.373-0.091-0.589-0.431-0.774-0.735c-1.374-2.376-2.749-4.752-4.13-7.123c-0.187-0.336-0.401-0.711-0.287-1.107
		c0.135-0.562,0.727-0.785,1.17-1.059C154.29,153.311,154.899,152.843,155.611,152.593z"/>
</g>
</svg>
