<svg width="80px" height="80px" viewBox="0 0 80 80" version="1.1" xmlns="http://www.w3.org/2000/svg">
    <title>Right Arrow</title>
    <description>Scroll Right</description>
    <path fill="#ffffff" opacity="1.00" d=" M 32.14 1.18 C 51.63 -3.02 72.76 10.02 78.12 29.12 C 83.51 47.15 73.70 67.78 56.88 75.82 C 46.19 81.12 33.09 80.62 22.51 75.29 C 12.48 70.35 4.79 60.94 1.90 50.14 C -0.94 40.05 0.50 28.79 5.98 19.83 C 11.64 10.38 21.36 3.44 32.14 1.18 M 32.44 5.58 C 17.12 8.90 5.09 23.26 4.72 38.96 C 4.11 56.87 18.92 74.20 37.03 75.23 C 53.18 76.54 69.43 65.54 73.98 49.96 C 78.99 33.51 69.79 14.54 54.21 7.62 C 47.47 4.45 39.66 3.97 32.44 5.58 Z" />
    <path fill="#ffffff" opacity="1.00" d=" M 32.84 26.05 C 34.17 24.82 35.99 21.81 37.88 24.01 C 43.09 29.37 48.62 34.42 53.59 40.00 C 50.13 44.05 46.14 47.60 42.45 51.42 C 40.34 53.37 38.62 55.86 35.96 57.10 C 34.95 56.02 33.90 54.97 32.84 53.94 C 36.96 48.94 41.92 44.70 46.37 40.00 C 41.92 35.30 36.96 31.06 32.84 26.05 Z" />
    <path fill="#ffffff" opacity="0.30" d=" M 32.44 5.58 C 39.66 3.97 47.47 4.45 54.21 7.62 C 69.79 14.54 78.99 33.51 73.98 49.96 C 69.43 65.54 53.18 76.54 37.03 75.23 C 18.92 74.20 4.11 56.87 4.72 38.96 C 5.09 23.26 17.12 8.90 32.44 5.58 M 32.84 26.05 C 36.96 31.06 41.92 35.30 46.37 40.00 C 41.92 44.70 36.96 48.94 32.84 53.94 C 33.90 54.97 34.95 56.02 35.96 57.10 C 38.62 55.86 40.34 53.37 42.45 51.42 C 46.14 47.60 50.13 44.05 53.59 40.00 C 48.62 34.42 43.09 29.37 37.88 24.01 C 35.99 21.81 34.17 24.82 32.84 26.05 Z" />
    </svg>
