<svg width="50px" height="50px" viewBox="0 0 111 111" version="1.1" xmlns="http://www.w3.org/2000/svg">
    <title>Email Me</title>
    <description>Email Me</description>
<path class="outercircle" d=" M 54.73 0.00 L 56.41 0.00 C 71.15 0.23 85.66 6.53 95.75 17.29 C 104.75 26.54 110.07 39.06 111.00 51.89 L 111.00 58.59 C 110.23 73.04 103.56 87.06 92.77 96.71 C 83.65 105.06 71.65 110.07 59.34 111.00 L 52.36 111.00 C 37.92 110.19 23.90 103.48 14.28 92.66 C 5.46 82.98 0.42 70.08 0.00 57.02 L 0.00 54.43 C 0.34 40.52 5.92 26.73 15.78 16.84 C 25.84 6.32 40.19 0.22 54.73 0.00 M 45.52 7.70 C 33.02 10.29 21.65 18.00 14.71 28.72 C 8.04 38.72 5.42 51.26 7.28 63.11 C 9.33 76.81 17.65 89.36 29.33 96.76 C 37.79 102.17 47.95 104.86 57.97 104.33 C 70.42 103.76 82.58 98.18 91.06 89.05 C 99.93 79.77 104.86 66.86 104.38 54.03 C 104.01 39.32 96.56 24.90 84.59 16.29 C 73.63 7.91 58.97 4.94 45.52 7.70 Z" />
<path class="innericon" d=" M 28.90 37.74 C 35.34 44.05 41.91 50.24 48.29 56.60 C 41.79 61.37 35.33 66.18 28.90 71.03 C 28.89 59.94 28.88 48.84 28.90 37.74 Z" />
<path class="innericon" d=" M 30.51 37.73 C 47.21 37.73 63.90 37.74 80.60 37.73 C 72.27 44.47 63.89 51.14 55.56 57.90 C 47.22 51.16 38.85 44.47 30.51 37.73 Z" />
<path class="innericon" d=" M 62.81 56.60 C 69.21 50.25 75.76 44.04 82.21 37.74 C 82.24 48.83 82.22 59.93 82.22 71.02 C 75.77 66.18 69.31 61.36 62.81 56.60 Z" />
<path class="innericon" d=" M 28.99 73.27 C 36.21 68.42 43.61 63.83 50.92 59.11 C 52.46 60.61 54.01 62.10 55.55 63.61 C 57.09 62.10 58.64 60.61 60.19 59.11 C 67.50 63.82 74.88 68.43 82.11 73.27 C 64.40 73.27 46.70 73.26 28.99 73.27 Z" />
</svg>
