<svg width="50px" height="50px" viewBox="0 0 111 111" version="1.1" xmlns="http://www.w3.org/2000/svg">
    <title>Find me on LinkedIn</title>
    <description>Find me on LinkedIn</description>
<path class="outercircle" d=" M 55.01 0.00 L 56.20 0.00 C 70.73 0.17 85.09 6.24 95.19 16.70 C 104.59 26.11 110.19 39.05 111.00 52.29 L 111.00 58.43 C 110.30 72.72 103.80 86.61 93.25 96.28 C 83.98 104.94 71.65 110.18 59.00 111.00 L 52.53 111.00 C 38.03 110.25 23.95 103.52 14.29 92.67 C 5.41 82.92 0.34 69.90 0.00 56.74 L 0.00 54.63 C 0.28 40.63 5.89 26.75 15.81 16.81 C 25.94 6.24 40.39 0.14 55.01 0.00 M 45.52 7.70 C 32.54 10.39 20.79 18.61 13.93 29.96 C 7.82 39.75 5.49 51.78 7.29 63.17 C 9.36 76.82 17.64 89.33 29.28 96.73 C 37.74 102.15 47.90 104.85 57.94 104.33 C 70.64 103.77 83.02 97.97 91.54 88.53 C 101.31 78.06 105.98 63.12 103.96 48.95 C 102.00 33.66 92.28 19.68 78.66 12.47 C 68.63 7.01 56.67 5.45 45.52 7.70 Z" />
<path class="innericon" d=" M 34.28 29.45 C 38.10 27.43 43.51 30.50 42.85 35.02 C 42.62 39.61 36.51 41.56 33.18 38.85 C 30.04 36.51 30.58 30.94 34.28 29.45 Z" />
<path class="innericon" d=" M 31.11 44.67 C 34.59 44.66 38.08 44.67 41.56 44.66 C 41.60 55.44 41.56 66.21 41.58 76.99 C 38.09 77.01 34.60 77.00 31.11 76.99 C 31.11 66.22 31.11 55.45 31.11 44.67 Z" />
<path class="innericon" d=" M 48.05 45.40 C 51.54 45.40 55.03 45.39 58.52 45.41 C 58.52 46.94 58.50 48.46 58.48 49.99 C 61.69 44.29 69.92 43.08 75.01 46.91 C 78.75 49.65 79.93 54.58 79.97 58.99 C 80.04 65.24 79.99 71.49 79.99 77.74 C 76.50 77.73 73.01 77.74 69.53 77.72 C 69.49 71.60 69.61 65.48 69.47 59.37 C 69.48 56.68 67.99 53.45 64.97 53.22 C 61.62 52.66 58.53 55.75 58.55 59.02 C 58.46 65.25 58.54 71.49 58.51 77.73 C 55.03 77.74 51.54 77.73 48.05 77.73 C 48.09 66.95 48.08 56.18 48.05 45.40 Z" />

</svg>
